<svg width="20" height="21" viewBox="0 0 20 21" fill="none" xmlns="http://www.w3.org/2000/svg">
<path d="M0 2.29688V12.1406C0 12.6843 0.419726 13.125 0.937499 13.125H4.06249C4.58027 13.125 4.99999 12.6843 4.99999 12.1406V2.29688C4.99999 1.75321 4.58027 1.3125 4.06249 1.3125H0.937499C0.419726 1.3125 0 1.75321 0 2.29688ZM1.5625 10.5C1.5625 9.95634 1.98222 9.51562 2.5 9.51562C3.01777 9.51562 3.4375 9.95634 3.4375 10.5C3.4375 11.0437 3.01777 11.4844 2.5 11.4844C1.98222 11.4844 1.5625 11.0437 1.5625 10.5ZM12.1875 21C11.3991 21 11.0357 19.3884 10.8621 18.6295C10.6587 17.7409 10.4484 16.8219 9.87014 16.2136C8.60182 14.8796 7.93643 13.1798 6.38902 11.5743C6.34498 11.5286 6.31002 11.4742 6.28617 11.4142C6.26231 11.3542 6.25003 11.2898 6.25003 11.2248V2.45688C6.25003 2.18859 6.45483 1.96969 6.7103 1.96477C7.3287 1.95288 8.14366 1.59239 8.76698 1.30122C10.0074 0.721793 11.5511 0.000697266 13.4373 0H13.5484C15.2194 0 17.1954 0.0169395 17.9927 1.21968C18.3205 1.71421 18.4007 2.3285 18.2328 3.05029C18.87 3.74973 19.2118 5.05444 18.8727 6.1165C19.5581 7.07757 19.6205 8.41879 19.2363 9.37597L19.2406 9.38048C19.7052 9.87057 20.0033 10.6626 20 11.3983C19.9939 12.6432 18.9782 13.7812 17.6737 13.7812H13.7001C13.9855 14.9436 15 15.9195 15 17.6592C15 20.6719 13.125 21 12.1875 21Z" fill="white"/>
</svg>
