<svg width="19" height="21" viewBox="0 0 19 21" fill="none" xmlns="http://www.w3.org/2000/svg">
<path d="M3.85938 9.1875H0.890626C0.398741 9.1875 0 9.62821 0 10.1719V20.0156C0 20.5593 0.398741 21 0.890626 21H3.85938C4.35126 21 4.75 20.5593 4.75 20.0156V10.1719C4.75 9.62821 4.35126 9.1875 3.85938 9.1875ZM2.375 19.3594C1.88312 19.3594 1.48438 18.9187 1.48438 18.375C1.48438 17.8313 1.88312 17.3906 2.375 17.3906C2.86689 17.3906 3.26563 17.8313 3.26563 18.375C3.26563 18.9187 2.86689 19.3594 2.375 19.3594ZM14.25 3.3408C14.25 5.08052 13.2863 6.05637 13.0151 7.21875H16.79C18.0293 7.21875 18.9942 8.35677 19 9.60168C19.0031 10.3374 18.7199 11.1295 18.2786 11.6195L18.2745 11.624C18.6395 12.5812 18.5802 13.9224 17.9291 14.8835C18.2513 15.9456 17.9266 17.2503 17.3212 17.9497C17.4807 18.6715 17.4045 19.2858 17.093 19.7803C16.3356 20.9831 14.4584 21 12.871 21L12.7654 21C10.9735 20.9993 9.50698 20.2782 8.32861 19.6987C7.73646 19.4076 6.96221 19.0471 6.37476 19.0352C6.13207 19.0303 5.9375 18.8114 5.9375 18.5431V9.77517C5.9375 9.64392 5.98508 9.51796 6.06954 9.42568C7.53959 7.82016 8.17171 6.12035 9.37662 4.78636C9.92599 4.17802 10.1258 3.2591 10.3189 2.37046C10.484 1.61163 10.8292 0 11.5781 0C12.4688 0 14.25 0.328125 14.25 3.3408Z" fill="white"/>
</svg>
