<svg width="19" height="21" viewBox="0 0 19 21" fill="none" xmlns="http://www.w3.org/2000/svg">
<path d="M6.91535 6.30343C5.62963 6.30343 4.58214 7.35742 4.58214 8.66978C4.58214 9.96983 5.62963 11.0361 6.91535 11.0361C8.20107 11.0361 9.24856 9.96983 9.24856 8.66978C9.24856 7.35742 8.20107 6.30343 6.91535 6.30343ZM12.3381 6.30343C11.0524 6.30343 10.0049 7.35742 10.0049 8.66978C10.0049 9.96983 11.0524 11.0361 12.3381 11.0361C13.6352 11.0361 14.6713 9.96983 14.6713 8.66978C14.6751 7.35742 13.6352 6.30343 12.3381 6.30343ZM18.26 9.99444L18.0331 10.1708V2.03826C18.0331 0.914551 17.2541 0 16.2936 0H2.71406C1.75355 0 0.974549 0.914551 0.974549 2.03826V10.1708C0.898918 10.1134 0.811943 10.0519 0.736312 9.99444C0.165299 9.55972 -0.212855 10.1585 0.131266 10.7203C0.823288 11.6472 2.13926 12.7832 4.15104 13.6731C2.02204 21.535 9.34688 22.7899 9.22965 18.7626C9.22965 18.7339 9.241 16.4414 9.241 14.801C9.43386 14.8461 9.59646 14.8953 9.75907 14.9281C9.75907 16.5562 9.77042 18.7339 9.77042 18.7626C9.65319 22.7941 16.978 21.5391 14.849 13.6773C16.857 12.7873 18.1768 11.6513 18.8688 10.7244C19.2129 10.1585 18.8348 9.56382 18.26 9.99444ZM17.1066 10.7819C14.5011 12.3157 12.2549 12.0573 11.0335 11.9999C10.1372 11.963 9.80067 12.3731 9.75907 13.0211C9.36957 12.7053 9.0557 12.3854 8.99142 12.3198C8.79856 12.0983 8.47335 11.9917 7.96662 12.004C6.76787 12.0491 4.57458 12.3075 2.01447 10.8557V2.96511C2.01447 1.53382 2.35103 1.0909 3.54978 1.0909H15.5637C16.7095 1.0909 17.1104 1.61994 17.1104 2.96511V10.7819H17.1066Z" fill="white"/>
</svg>
